<?xml version="1.0" encoding="utf-8"?>
<!-- Generator: Adobe Illustrator 19.0.0, SVG Export Plug-In . SVG Version: 6.00 Build 0)  -->
<svg version="1.1" id="Layer_1" xmlns="http://www.w3.org/2000/svg" xmlns:xlink="http://www.w3.org/1999/xlink" x="0px" y="0px"
	 viewBox="296 223.8 1061 386" style="enable-background:new 296 223.8 1061 386;" xml:space="preserve">
<style type="text/css">
	.st0{fill:#005ABB;stroke:#005ABB;stroke-width:9.375000e-02;}
	.st1{fill:#006EDD;stroke:#006EDD;stroke-width:9.375000e-02;}
	.st2{fill:#348DEE;stroke:#348DEE;stroke-width:9.375000e-02;}
</style>
<path class="st0" d="M566.8,256.7c5.2-1.8,10.7-2.6,16.2-2.6c85.7,0,171.3,0,257,0c10.1,0.1,20.5-0.8,30,2.9
	c19.1,6.6,33,25.7,33,45.9c0,58,0,115.9,0,173.9c0.1,20.5-14.1,40-33.5,46.4c-7.6,2.8-15.7,2.9-23.7,2.8c-31,0-62,0-93,0
	c-21.7-0.1-43.7,1-65-3.7c-20.4-4.2-40.4-13.1-55.1-28.2c-13.5-12.8-21.8-30.2-25.7-48.2c-8.4-39.1,2.5-82,28.8-112.1
	c15.6-17.8,37.8-29.2,61-33c17.6-2.7,35.8-2.9,53.2,1.2c19.9,4.6,38.9,15.1,51.6,31.4c21.1,25.1,26.6,62.4,13.3,92.4
	c-5.5,12.9-14.2,24.2-24.5,33.6c-9.9,8.6-22.1,15.2-35.3,16.1c-4.9,0.7-9.8-0.5-14.7-1.3c-3.7-0.6-5.9-4-8.6-6.2
	c-3.5-2.6-2.9-7.5-4.1-11.2c-7.4,8.2-16.9,14.9-27.7,17.8c-11.8,2.7-24.7-1.1-33.6-9.2c-4-3.1-6.6-7.5-9.4-11.6
	c-7.5-13.5-9.6-29.7-6.7-44.9c2.8-15.3,9.8-29.8,19.9-41.7c9.8-11.2,23.7-19.2,38.6-20.3c5.9,0.2,12.1,0.9,17.5,3.5
	c8.2,3.3,14.2,10.1,19.3,17.1c1.2-5.8,2.5-11.6,3.8-17.4c7.4,0,14.8-0.1,22.2,0.1c-6.6,31.2-13.6,62.4-19.9,93.7
	c-1.1,3.1,0.3,6,1.6,8.8c1.8,0.8,3.6,1.5,5.5,2.2c2.9-0.9,5.9-1.5,8.7-2.6c27.1-14.3,41.1-48,34.1-77.5
	c-3.7-17.8-15.1-33.4-30.2-43.2c-12.5-7.7-26.8-12.8-41.5-14c-17.9-1.6-36.3,1-52.6,8.7c-18.4,8.3-33.6,23.2-42.5,41.3
	c-9,17.6-13,37.7-11.7,57.4c1.1,19,7.2,38.3,20.1,52.6c10.1,11.7,24.1,19.4,38.8,23.7c21.6,7.1,44.5,6.2,66.9,6.3c35,0,70,0,105.1,0
	c16.2,0,30.6-14.4,30.6-30.6c0-58,0-116,0-174.1c-0.1-16.1-14.6-30.4-30.7-30.2c-90.6,0-181.3,0-271.9,0
	c-16.2-0.1-30.6,14.2-30.7,30.3c-0.1,57.3,0,114.6,0,171.9c-0.1,6.3,1.4,12.7,4.9,18.1c5.5,8.8,15.5,14.5,25.8,14.6
	c13.4,0.1,26.7,0,40.1,0c5-0.2,9.6,4.2,9.4,9.2c0.1,5-4.4,9.4-9.4,9.2c-13.4,0.1-26.7,0-40.1,0c-13.8-0.1-27.3-6.3-36.5-16.6
	c-8.2-9.1-12.8-21.3-12.7-33.5c0-57.3,0-114.6,0-172C532.5,283,546.9,263.1,566.8,256.7 M706.4,366.5c-4.1,0.4-7.9,2.1-10.9,4.9
	c-10.5,7.5-16.3,19.6-20.2,31.5c-3.2,10.8-4.3,22.3-1.8,33.3c1.7,4.6,3,9.7,6.9,12.9c3.5,2.7,6.6,6.5,11.3,6.9
	c5.2,1.7,10.6-0.3,15.7-1.8c10.4-5.1,18.8-13.9,23.6-24.4c4.9-9.9,7.5-20.9,7.6-32c-0.5-5.8-0.8-11.8-3.6-17
	c-1.9-6-7.3-9.6-12.3-12.8C717.5,366.2,711.9,364.8,706.4,366.5z"/>
<path class="st1" d="M329.1,304c8.2,0,16.4,0,24.6,0c0,57.4,0,114.9,0,172.3c-8.2-0.1-16.4,0-24.6,0C329,418.8,329,361.4,329.1,304z
	"/>
<path class="st1" d="M373.4,304c45.1,0,90.2,0,135.4,0c0,8.2,0,16.4,0,24.6c-18.4-0.1-36.9,0.1-55.3-0.1c-0.2,49.2,0,98.5-0.1,147.8
	c-8.2,0-16.4,0-24.6,0c0-49.2,0-98.4,0-147.7c-18.5,0-36.9,0-55.4,0C373.4,320.4,373.4,312.2,373.4,304z"/>
<path class="st1" d="M1013.3,304c8.2,0,16.4,0,24.6,0c0,41.6,0.1,83.3,0,124.9c-0.2,21.8-17.2,41.8-38.3,46.2
	c-8,1.7-16.3,1-24.5,1.1c-13.6,0-26.8-6.4-35.7-16.7c-8-8.8-12.2-20.6-12.2-32.5c8.2,0,16.4,0,24.5,0c0,9.3,5.6,18.2,14,22.2
	c7.3,3.6,15.6,2.1,23.4,2.4c12.7,0.2,24.2-11.1,24.2-23.8C1013.3,386.6,1013.2,345.3,1013.3,304z"/>
<path class="st1" d="M1096.1,304.3c9.3-0.7,18.6-0.2,27.9-0.3c10,0.2,20.2-1,29.9,2.2c20,6.1,34.9,26,34.4,47.1
	c-8.2,0-16.4,0-24.6,0c0.1-12.4-10.3-24-22.8-24.5c-11.6-0.2-23.3,0-34.9-0.1c-4.8-0.1-9.7,0-14.1,2.1c-8.5,3.9-14.6,12.8-14.4,22.2
	c0,25,0,50,0,75c0,10.7,8.2,20.6,18.5,23c3.6,0.9,7.3,0.7,11,0.7c11.3-0.1,22.6,0.1,33.9-0.1c12.5-0.6,22.9-12.1,22.7-24.5
	c8.2,0,16.4,0,24.6,0c0.4,19.9-12.8,38.7-31.2,46c-6.4,2.5-13.3,3.4-20.1,3.3c-12.7-0.1-25.3,0.1-38-0.1
	c-22.1-0.7-42-18.7-45.5-40.4c-0.8-4.3-0.7-8.6-0.7-12.9c0.1-24-0.1-48,0.1-71.9C1053.3,327.6,1072.9,306.6,1096.1,304.3z"/>
<path class="st1" d="M1202.8,304c8.2,0,16.4,0,24.6,0c0,41,0,82,0,122.9c-0.3,9.7,6,18.9,14.8,22.8c6.9,3.1,14.6,1.7,21.9,2
	c7.5-0.3,15.5,1.2,22.6-2.1c8.4-3.8,14.5-12.5,14.5-21.8c0.1-41.3,0-82.5,0-123.8c8.2,0,16.4,0,24.6,0c0,41.6,0.1,83.3,0,124.9
	c-0.2,21.8-17.1,41.8-38.3,46.3c-7.4,1.6-15,1-22.4,1.1c-9.4-0.2-19,0.8-28-2.2c-17.2-5.4-31.1-21-33.7-39c-0.8-5-0.6-10.1-0.6-15.2
	C1202.8,381.2,1202.8,342.6,1202.8,304z"/>
<path class="st2" d="M647.3,537.1c47.1,0,94.2,0,141.4,0c2.5,9.6,8.1,17.8,15,24.8c-57.2,0.1-114.3,0.1-171.5,0
	C639.2,555,644.8,546.7,647.3,537.1z"/>
<path class="st2" d="M605.3,573.4c13.2-0.6,26.5-0.1,39.7-0.3c61,0,122,0,183.1,0c3.9-0.4,7.6,2.9,7.4,6.8c0.1,3.9-3.6,7-7.4,6.7
	c-73.4,0-146.8,0-220.1,0c-3.1,0.3-6.3-1.7-7.2-4.8C599.6,578.4,601.8,574.3,605.3,573.4z"/>
</svg>
